HIERARCHY
ROOT Hips
{
  OFFSET -331.093 83.8371 -317.828
  CHANNELS 6 Xposition Yposition Zposition Zrotation Xrotation Yrotation
  JOINT LeftUpLeg
  {
    OFFSET 8.64259 1.95398 -2.38835
    CHANNELS 3 Zrotation Xrotation Yrotation
    JOINT LeftLeg
    {
      OFFSET 43.7702 0 0
      CHANNELS 3 Zrotation Xrotation Yrotation
      JOINT LeftFoot
      {
        OFFSET 40.6238 0 0
        CHANNELS 3 Zrotation Xrotation Yrotation
        JOINT LeftToeBase
        {
          OFFSET 12.7242 0 0
          CHANNELS 3 Zrotation Xrotation Yrotation
          End Site
          {
            OFFSET 0 0 0
          }
        }
      }
    }
  }
  JOINT RightUpLeg
  {
    OFFSET -8.2249 1.95398 -2.59336
    CHANNELS 3 Zrotation Xrotation Yrotation
    JOINT RightLeg
    {
      OFFSET 43.5653 0 0
      CHANNELS 3 Zrotation Xrotation Yrotation
      JOINT RightFoot
      {
        OFFSET 40.6238 0 0
        CHANNELS 3 Zrotation Xrotation Yrotation
        JOINT RightToeBase
        {
          OFFSET 12.7242 0 0
          CHANNELS 3 Zrotation Xrotation Yrotation
          End Site
          {
            OFFSET 0 0 0
          }
        }
      }
    }
  }
  JOINT Spine
  {
    OFFSET 0.165834 0.87714 6.61349
    CHANNELS 3 Zrotation Xrotation Yrotation
    JOINT Spine1
    {
      OFFSET 7.38963 1.71661e-005 0
      CHANNELS 3 Zrotation Xrotation Yrotation
      JOINT Spine2
      {
        OFFSET 11.9445 1.14441e-005 0
        CHANNELS 3 Zrotation Xrotation Yrotation
        JOINT Spine3
        {
          OFFSET 14.7254 4.19617e-005 0
          CHANNELS 3 Zrotation Xrotation Yrotation
          JOINT Spine4
          {
            OFFSET 10.9679 0 0
            CHANNELS 3 Zrotation Xrotation Yrotation
            JOINT RightShoulder
            {
              OFFSET 2.46616 -1.6653 3.69651
              CHANNELS 3 Zrotation Xrotation Yrotation
              JOINT RightArm
              {
                OFFSET 13.0012 0 0
                CHANNELS 3 Zrotation Xrotation Yrotation
                JOINT RightForeArm
                {
                  OFFSET 28.7848 1.62311e-005 0
                  CHANNELS 3 Zrotation Xrotation Yrotation
                  JOINT RightHand
                  {
                    OFFSET 26.5688 1.62095e-005 0
                    CHANNELS 3 Zrotation Xrotation Yrotation
                    End Site
                    {
                      OFFSET 0 0 0
                    }
                  }
                }
              }
            }
            JOINT LeftShoulder
            {
              OFFSET 2.38034 -1.29275 -3.7523
              CHANNELS 3 Zrotation Xrotation Yrotation
              JOINT LeftArm
              {
                OFFSET 16.3182 6.07031e-005 0
                CHANNELS 3 Zrotation Xrotation Yrotation
                JOINT LeftForeArm
                {
                  OFFSET 27.0901 0 0
                  CHANNELS 3 Zrotation Xrotation Yrotation
                  JOINT LeftHand
                  {
                    OFFSET 24.5451 1.51738e-005 0
                    CHANNELS 3 Zrotation Xrotation Yrotation
                    End Site
                    {
                      OFFSET 0 0 0
                    }
                  }
                }
              }
            }
            JOINT Neck
            {
              OFFSET 5.0226 -0.0266342 0
              CHANNELS 3 Zrotation Xrotation Yrotation
              JOINT Head
              {
                OFFSET 6.69364 2.86102e-005 0
                CHANNELS 3 Zrotation Xrotation Yrotation
                End Site
                {
                  OFFSET 0 0 0
                }
              }
            }
          }
        }
      }
    }
  }
}
MOTION
Frames:	10
Frame Time:	0.0416667
-97.0588 105.309 -149.069 93.4588 -35.9619 97.7014 -175.565 1.10222 94.0112 -21.5583 25.1144 1.03907 43.8218 -10.017 -3.93751 15.7573 -8.88845 8.05861 157.897 59.5301 110.006 -107.424 0.810218 -1.34349 53.2605 1.75782 0.664796 32.6569 -0.834412 -4.9933 -0.980301 7.91229 -90.3759 11.0434 -2.12558 -0.542157 -0.625885 -2.14738 -0.448049 -23.1713 -1.86435 -1.1561 -3.15869 -1.86435 -1.1561 90.1774 -43.5945 -101.72 35.3272 -11.6836 32.0272 -6.84508 -18.574 -31.2809 2.76312 0.153765 4.51276 -93.7295 -45.1443 72.2761 -20.7836 4.33499 -7.3084 3.63323 -1.71234 -61.1203 20.0453 1.63191 4.2887 -5.8478 1.59234 -0.27049 5.27235 1.67697 1.31037 
-88.7241 110.368 -142.222 94.3437 -33.3891 96.7647 -174.933 -3.4196 92.452 -13.0553 30.27 0.048006 37.0614 -13.6304 -5.52956 13.2613 -11.1389 4.37271 158.636 62.232 110.468 -103.457 -0.367956 -0.841867 57.9657 0.393427 -0.348154 31.9994 -1.15065 -7.44459 -1.26217 7.8871 -90.2052 11.1002 -2.60754 -0.155779 -0.568135 -2.61189 -0.0407941 -23.1222 -2.4401 -0.932711 -3.10957 -2.44011 -0.932719 90.5626 -41.8683 -101.542 38.5811 -5.83834 40.4611 -6.3547 -11.2468 -31.8818 0.38949 -0.0333963 2.60372 -90.5958 -41.553 76.2226 -19.1158 4.94024 -11.6985 5.70393 -3.20682 -74.0396 20.2182 1.49943 3.57807 -7.13778 1.57177 -1.95055 5.53806 1.86058 2.26617 
-79.8856 112.736 -135.373 94.6031 -33.2301 95.6588 -175.753 -2.34862 90.86 -7.8091 24.8268 -0.65869 43.4215 -11.1364 -6.7012 19.635 -5.43645 11.9846 165.75 60.3188 106.342 -94.5209 -1.86996 -0.362129 61.9709 -1.00519 -1.16012 29.6707 -1.42399 -11.0928 -1.2402 7.83237 -90.1159 11.2116 -2.52216 0.0170857 -0.456928 -2.51897 0.128138 -23.0105 -2.41062 -0.742171 -2.99785 -2.41062 -0.742168 91.2716 -39.4603 -100.978 41.3154 -3.32292 44.9574 -6.62586 -10.4027 -31.5496 -0.278144 -0.0786036 1.99682 -89.715 -40.4763 77.3855 -17.1984 0.268676 -14.5078 6.41786 -1.28478 -86.7906 17.6924 1.49769 4.58329 -6.28871 1.25572 -2.25915 5.18387 1.65275 3.45431 
-70.9946 111.343 -128.405 93.3888 -31.5376 93.7055 -176.466 1.23662 88.4795 -7.23821 12.6871 -1.15426 47.4724 -9.56802 -6.41498 28.115 2.94645 14.919 170.105 56.622 102.21 -81.2771 -0.482121 0.481802 61.8908 -0.544142 -0.694563 36.4452 -2.23462 -11.1873 -1.41366 7.65773 -90.0292 11.5645 -2.8259 0.232832 -0.103446 -2.81291 0.35707 -22.6625 -2.76513 -0.627905 -2.64989 -2.76512 -0.627908 91.4662 -38.6068 -100.868 41.6154 -3.81646 46.551 -7.83931 -13.0367 -31.7791 1.90734 0.0620986 2.79828 -89.5275 -40.4034 77.6782 -15.2488 -4.31454 -17.0938 5.15464 -6.11224 -97.4375 21.8632 2.0802 5.71132 -4.7176 1.0233 -2.74321 3.26731 1.46147 3.84998 
-62.1308 105.562 -121.591 95.275 -31.0498 94.145 -175.839 -0.608073 87.9083 -5.93986 9.16446 -2.01034 44.8479 -9.67656 -5.58969 33.5465 8.75305 16.0262 173.624 50.2397 99.6276 -65.4769 1.05807 0.863592 64.9671 -1.45647 -1.09627 41.0619 -2.63498 -10.5613 -1.36842 7.75041 -89.996 11.3793 -2.72102 0.281702 -0.288899 -2.70599 0.401266 -22.8464 -2.6798 -0.549711 -2.83373 -2.67978 -0.549707 91.3462 -39.2413 -100.906 39.5836 -4.83775 47.5234 -8.09474 -14.3595 -32.7741 3.70519 0.201846 3.60071 -89.666 -40.4573 77.4619 -14.7873 -8.21363 -20.1623 3.86066 -3.91464 -106.902 25.6461 3.26619 8.99059 -4.71244 0.714907 -2.11183 3.4906 1.05304 2.88325 
-53.5088 97.2944 -114.677 97.0193 -30.1699 95.0455 -174.23 4.75455 87.4992 -35.8695 15.2964 -1.54894 62.8957 3.9442 6.30149 50.3924 15.0155 -3.34369 177.917 44.5043 97.145 -47.0795 2.33884 -0.450487 67.1742 -2.57548 -1.60949 41.9563 -2.84561 -10.9809 -1.315 7.87967 -90.0023 11.1199 -2.61865 0.249775 -0.548479 -2.6051 0.364859 -23.1043 -2.57257 -0.549318 -3.09161 -2.57256 -0.549323 90.4866 -42.3868 -101.53 35.0628 -5.65356 46.3656 -7.25719 -13.7127 -31.5848 1.62497 0.0620016 3.70285 -90.5895 -41.399 76.1913 -15.4641 -9.55393 -21.5081 3.31579 -3.7261 -114.205 29.2385 3.86316 9.53327 -3.32608 0.0673411 -2.0155 3.53019 0.384504 1.97369 
-43.6338 90.8497 -107.623 95.5808 -29.942 91.3015 -174.588 -1.51532 83.4125 -41.699 10.4005 -0.940705 73.4219 15.9085 14.0841 56.9289 22.5279 0.522085 -178.428 40.7917 91.5826 -28.6172 0.705329 -2.88487 67.5424 -3.73791 -2.01035 43.1626 -1.88759 -6.54635 -1.20898 7.767 -89.6523 11.3492 -2.24359 0.91638 -0.320227 -2.20107 1.01426 -22.8706 -2.41522 0.199363 -2.85795 -2.41522 0.199366 91.2105 -45.5433 -99.548 32.3542 -6.16827 37.0521 -6.35479 -15.6879 -27.1123 -6.27176 -0.688941 7.95048 -93.4805 -45.5048 72.7664 -13.175 -3.58804 -18.3407 6.51381 -6.51152 -115.523 28.1858 3.13223 7.36413 1.40522 -1.21273 -4.34941 0.396748 -0.497619 2.02888 
-32.1403 88.6667 -98.8928 94.4072 -30.5009 89.4793 -172.879 -10.1841 85.3671 -39.855 16.9303 -1.45219 68.867 12.4811 13.5043 63.0643 31.4127 5.33277 -178.985 37.4178 90.2956 -22.7708 -3.54107 -3.70902 68.7482 -3.86877 -2.06469 45.7774 -2.36977 -7.57029 -1.14481 7.49592 -89.6945 11.8873 -2.13257 0.835379 0.217748 -2.09373 0.92845 -22.331 -2.285 0.155523 -2.31836 -2.28499 0.15552 92.0651 -45.5313 -98.1745 32.5424 -6.37362 26.036 -5.18959 -11.7202 -26.8104 -9.15997 -1.00862 7.71574 -95.8418 -48.0989 69.9812 -19.0633 6.0785 -6.5205 12.2363 -13.7012 -99.1137 24.104 2.2989 5.77878 2.73892 -1.85868 -3.19776 -1.68666 -1.30473 1.59927 
-19.9719 88.5482 -89.2219 90.1344 -31.0141 89.8201 -171.8 -12.9078 92.9205 -37.6589 24.9483 0.459209 55.8334 -2.815 0.227236 42.6833 25.2724 29.3825 177.789 41.2109 93.1483 -35.6165 -1.79295 -0.96164 64.1623 -1.12551 -0.734475 45.5062 -3.29688 -11.2423 -1.14257 6.99393 -90.4536 12.8922 -2.48556 -0.595778 1.22361 -2.50936 -0.485747 -21.3269 -2.19153 -1.31555 -1.31426 -2.19155 -1.31555 91.9945 -45.3674 -98.3258 29.4325 -9.81643 15.0032 -1.51832 -4.00762 -32.8427 -6.78633 -0.415472 1.86966 -96.6899 -49.1295 69.0569 -26.0918 11.9246 -1.06046 4.57277 4.70463 -70.5406 24.8707 2.40409 5.88647 5.50692 -0.763121 0.734669 -4.99092 -0.981053 3.15877 
-9.38103 87.8853 -80.8528 91.2542 -35.6446 89.8395 -174.816 -5.56513 90.195 -55.5685 20.8494 2.1362 40.7409 -13.4283 -7.86603 12.6264 -11.6245 13.8929 177.606 41.3445 95.8321 -52.3241 -2.64689 -1.52019 68.6409 -2.49841 -1.66496 32.6783 -0.989153 -6.02068 -0.800475 7.279 -90.5621 12.3087 -1.85735 -0.91251 0.638844 -1.89573 -0.829865 -21.9012 -1.49726 -1.42858 -1.8886 -1.49729 -1.42859 89.9922 -46.0378 -101.384 23.5185 -15.7677 -0.232513 -1.13895 -3.84405 -41.2504 -13.0742 -0.68245 0.842972 -100.406 -50.291 64.0713 -23.3826 15.444 -2.95564 -0.690196 9.55503 -28.0902 28.7668 2.57349 5.17043 7.44082 0.666295 2.96837 -4.11309 0.00593952 2.29451 
